<svg width="160" height="80" viewBox="0 0 160 80" fill="none" xmlns="http://www.w3.org/2000/svg">
<rect x="24.7744" width="38.1936" height="80" fill="#EC9E2A"/>
<rect width="35.0968" height="80" fill="#0F3174"/>
<rect x="10.3228" width="14.4516" height="80" fill="#008ED1"/>
<rect x="45.4194" width="35.0968" height="80" fill="#61B7DE"/>
<path d="M60.9033 0H96.0001V80H60.9033V0Z" fill="#9FCAEB"/>
<rect x="108.387" width="35.0968" height="80" fill="#E87C62"/>
<rect x="90.8389" width="35.0968" height="80" fill="#F0CFC4"/>
<rect x="143.484" width="16.5161" height="80" fill="#EF1D27"/>
<rect y="32" width="56" height="17" fill="#E4D3C9"/>
<path d="M1.93555 47.2559C1.74023 47.2559 1.56836 47.2422 1.41992 47.2148C1.27148 47.1875 1.14453 47.1504 1.03906 47.1035V46.2539C1.16406 46.293 1.29883 46.3223 1.44336 46.3418C1.58789 46.3652 1.74414 46.377 1.91211 46.377C2.13086 46.377 2.33203 46.334 2.51562 46.248C2.69922 46.1621 2.8457 46.0156 2.95508 45.8086C3.06445 45.6016 3.11914 45.3164 3.11914 44.9531V36.4336H4.12109V44.877C4.12109 45.4121 4.03125 45.8555 3.85156 46.207C3.67578 46.5586 3.42383 46.8203 3.0957 46.9922C2.77148 47.168 2.38477 47.2559 1.93555 47.2559ZM11.7852 41.7773C11.7852 42.3047 11.7168 42.7754 11.5801 43.1895C11.4434 43.6035 11.2461 43.9531 10.9883 44.2383C10.7305 44.5234 10.418 44.7422 10.0508 44.8945C9.6875 45.043 9.27539 45.1172 8.81445 45.1172C8.38477 45.1172 7.99023 45.043 7.63086 44.8945C7.27539 44.7422 6.9668 44.5234 6.70508 44.2383C6.44727 43.9531 6.24609 43.6035 6.10156 43.1895C5.96094 42.7754 5.89062 42.3047 5.89062 41.7773C5.89062 41.0742 6.00977 40.4766 6.24805 39.9844C6.48633 39.4883 6.82617 39.1113 7.26758 38.8535C7.71289 38.5918 8.24219 38.4609 8.85547 38.4609C9.44141 38.4609 9.95312 38.5918 10.3906 38.8535C10.832 39.1152 11.1738 39.4941 11.416 39.9902C11.6621 40.4824 11.7852 41.0781 11.7852 41.7773ZM6.89844 41.7773C6.89844 42.293 6.9668 42.7402 7.10352 43.1191C7.24023 43.498 7.45117 43.791 7.73633 43.998C8.02148 44.2051 8.38867 44.3086 8.83789 44.3086C9.2832 44.3086 9.64844 44.2051 9.93359 43.998C10.2227 43.791 10.4355 43.498 10.5723 43.1191C10.709 42.7402 10.7773 42.293 10.7773 41.7773C10.7773 41.2656 10.709 40.8242 10.5723 40.4531C10.4355 40.0781 10.2246 39.7891 9.93945 39.5859C9.6543 39.3828 9.28516 39.2812 8.83203 39.2812C8.16406 39.2812 7.67383 39.502 7.36133 39.9434C7.05273 40.3848 6.89844 40.9961 6.89844 41.7773ZM14.4395 35.8828V38.6074C14.4395 38.7637 14.4355 38.9219 14.4277 39.082C14.4199 39.2383 14.4062 39.3828 14.3867 39.5156H14.4512C14.584 39.2891 14.752 39.0996 14.9551 38.9473C15.1621 38.791 15.3965 38.6738 15.6582 38.5957C15.9199 38.5137 16.1973 38.4727 16.4902 38.4727C17.0059 38.4727 17.4355 38.5547 17.7793 38.7188C18.127 38.8828 18.3867 39.1367 18.5586 39.4805C18.7344 39.8242 18.8223 40.2695 18.8223 40.8164V45H17.8613V40.8809C17.8613 40.3457 17.7383 39.9453 17.4922 39.6797C17.25 39.4141 16.877 39.2812 16.373 39.2812C15.8965 39.2812 15.5156 39.373 15.2305 39.5566C14.9492 39.7363 14.7461 40.002 14.6211 40.3535C14.5 40.7051 14.4395 41.1348 14.4395 41.6426V45H13.4668V35.8828H14.4395ZM23.8672 38.4609C24.6289 38.4609 25.2051 38.6484 25.5957 39.0234C25.9863 39.3945 26.1816 39.9922 26.1816 40.8164V45H25.2207V40.8809C25.2207 40.3457 25.0977 39.9453 24.8516 39.6797C24.6094 39.4141 24.2363 39.2812 23.7324 39.2812C23.0215 39.2812 22.5215 39.4824 22.2324 39.8848C21.9434 40.2871 21.7988 40.8711 21.7988 41.6367V45H20.8262V38.5781H21.6113L21.7578 39.5039H21.8105C21.9473 39.2773 22.1211 39.0879 22.332 38.9355C22.543 38.7793 22.7793 38.6621 23.041 38.584C23.3027 38.502 23.5781 38.4609 23.8672 38.4609ZM38.252 40.6348C38.252 41.5996 38.0762 42.4062 37.7246 43.0547C37.373 43.6992 36.8633 44.1855 36.1953 44.5137C35.5312 44.8379 34.7246 45 33.7754 45H31.4492V36.4336H34.0332C34.9043 36.4336 35.6543 36.5938 36.2832 36.9141C36.9121 37.2305 37.3965 37.7012 37.7363 38.3262C38.0801 38.9473 38.252 39.7168 38.252 40.6348ZM37.2031 40.6699C37.2031 39.9004 37.0742 39.2656 36.8164 38.7656C36.5625 38.2656 36.1875 37.8945 35.6914 37.6523C35.1992 37.4062 34.5957 37.2832 33.8809 37.2832H32.4453V44.1445H33.6582C34.8379 44.1445 35.7227 43.8535 36.3125 43.2715C36.9062 42.6895 37.2031 41.8223 37.2031 40.6699ZM40.9824 38.5781V45H40.0098V38.5781H40.9824ZM40.5078 36.1758C40.668 36.1758 40.8047 36.2285 40.918 36.334C41.0352 36.4355 41.0938 36.5957 41.0938 36.8145C41.0938 37.0293 41.0352 37.1895 40.918 37.2949C40.8047 37.4004 40.668 37.4531 40.5078 37.4531C40.3398 37.4531 40.1992 37.4004 40.0859 37.2949C39.9766 37.1895 39.9219 37.0293 39.9219 36.8145C39.9219 36.5957 39.9766 36.4355 40.0859 36.334C40.1992 36.2285 40.3398 36.1758 40.5078 36.1758ZM45.6172 45.1172C45.0391 45.1172 44.5293 44.998 44.0879 44.7598C43.6465 44.5215 43.3027 44.1582 43.0566 43.6699C42.8105 43.1816 42.6875 42.5664 42.6875 41.8242C42.6875 41.0469 42.8164 40.4121 43.0742 39.9199C43.3359 39.4238 43.6953 39.0566 44.1523 38.8184C44.6094 38.5801 45.1289 38.4609 45.7109 38.4609C46.0312 38.4609 46.3398 38.4941 46.6367 38.5605C46.9375 38.623 47.1836 38.7031 47.375 38.8008L47.082 39.6152C46.8867 39.5371 46.6602 39.4668 46.4023 39.4043C46.1484 39.3418 45.9102 39.3105 45.6875 39.3105C45.2422 39.3105 44.8711 39.4062 44.5742 39.5977C44.2812 39.7891 44.0605 40.0703 43.9121 40.4414C43.7676 40.8125 43.6953 41.2695 43.6953 41.8125C43.6953 42.332 43.7656 42.7754 43.9062 43.1426C44.0508 43.5098 44.2637 43.791 44.5449 43.9863C44.8301 44.1777 45.1855 44.2734 45.6113 44.2734C45.9512 44.2734 46.2578 44.2383 46.5312 44.168C46.8047 44.0938 47.0527 44.0078 47.2754 43.9102V44.7773C47.0605 44.8867 46.8203 44.9707 46.5547 45.0293C46.293 45.0879 45.9805 45.1172 45.6172 45.1172ZM49.7656 35.8828V40.6172C49.7656 40.7734 49.7598 40.9648 49.748 41.1914C49.7363 41.4141 49.7266 41.6113 49.7188 41.7832H49.7598C49.8418 41.6816 49.9609 41.5312 50.1172 41.332C50.2773 41.1328 50.4121 40.9727 50.5215 40.8516L52.6543 38.5781H53.7969L51.2129 41.3203L53.9844 45H52.8125L50.5449 41.959L49.7656 42.6738V45H48.7988V35.8828H49.7656Z" fill="black"/>
</svg>
